<svg id="Layer_1" enable-background="new 0 0 508 508" height="512" viewBox="0 0 508 508" width="512" xmlns="http://www.w3.org/2000/svg"><g><g><circle cx="254" cy="254" fill="#ff7350" r="254"/></g><g><g><path d="m76.496 95.021h204.089v233.245h-204.089z" fill="#fff"/></g><g><path d="m76.496 95.021h47.737v233.245h-47.737z" fill="#dafffb"/></g><g><path d="m242.809 306.214h-128.537c-8.566 0-15.511-6.944-15.511-15.511v-159.378c0-8.566 6.944-15.511 15.511-15.511h128.537c8.566 0 15.511 6.944 15.511 15.511v159.378c-.001 8.567-6.945 15.511-15.511 15.511z" fill="#00c98f"/></g><g><path d="m242.809 306.214h-128.537c-8.566 0-15.511-6.944-15.511-15.511v-159.378c0-8.566 6.944-15.511 15.511-15.511h128.537c8.566 0 15.511 6.944 15.511 15.511v159.378c-.001 8.567-6.945 15.511-15.511 15.511z" fill="#00c98f"/></g><path d="m114.272 306.214h47.856c-8.566-.001-15.509-6.945-15.509-15.511v-159.378c0-8.566 6.944-15.51 15.509-15.511h-47.856c-8.566 0-15.511 6.944-15.511 15.511v159.378c0 8.567 6.944 15.511 15.511 15.511z" fill="#00ae7a"/></g><g><g><path d="m181.929 39.602h204.089v233.245h-204.089z" fill="#fff" transform="matrix(.946 .326 -.326 .946 66.359 -83.965)"/></g><g><path d="m93.437 106.897h233.245v47.737h-233.245z" fill="#dafffb" transform="matrix(.326 -.946 .946 .326 18.013 286.786)"/></g><g><path d="m313.939 266.57-121.53-41.861c-8.099-2.79-12.404-11.617-9.614-19.717l51.905-150.689c2.79-8.099 11.617-12.404 19.717-9.614l121.53 41.861c8.099 2.79 12.404 11.617 9.614 19.717l-51.905 150.689c-2.79 8.099-11.618 12.404-19.717 9.614z" fill="#00c98f"/></g><g><path d="m313.939 266.57-121.53-41.861c-8.099-2.79-12.404-11.617-9.614-19.717l51.905-150.689c2.79-8.099 11.617-12.404 19.717-9.614l121.53 41.861c8.099 2.79 12.404 11.617 9.614 19.717l-51.905 150.689c-2.79 8.099-11.618 12.404-19.717 9.614z" fill="#ffc305"/></g><path d="m192.409 224.709 45.247 15.585c-8.098-2.79-12.402-11.617-9.612-19.716l51.905-150.689c2.79-8.099 11.616-12.403 19.715-9.614l-45.247-15.585c-8.099-2.79-16.927 1.514-19.717 9.614l-51.905 150.689c-2.789 8.099 1.515 16.926 9.614 19.716z" fill="#ffa50a"/></g><g><path d="m465.014 488.404c0 10.624-8.612 19.236-19.236 19.236h-289.877c-10.624 0-19.236-8.612-19.236-19.236v-193.509c0-10.624 8.612-19.236 19.236-19.236h289.877c10.624 0 19.236 8.612 19.236 19.236z" fill="#33a2ff"/></g><g><path d="m368.132 306.968h-134.585l7.945-61.648c.979-7.593 7.444-13.278 15.1-13.278h88.494c7.656 0 14.121 5.685 15.1 13.278z" fill="#33a2ff"/></g><g><path d="m465.014 390.931v-96.037c0-10.624-8.612-19.236-19.236-19.236h-289.877c-10.624 0-19.236 8.612-19.236 19.236v96.037z" fill="#73ccff"/></g><g><path d="m228.908 507.64c-24.277 0-43.958-19.681-43.958-43.958v-144.065c0-24.277 19.681-43.958 43.958-43.958h-73.006c-10.624 0-19.236 8.612-19.236 19.236v193.509c0 10.624 8.612 19.236 19.236 19.236z" fill="#33a2ff"/></g><path d="m155.901 507.64h73.004c-24.276-.001-43.956-19.681-43.956-43.958v-144.065c0-24.277 19.681-43.958 43.958-43.958h-73.006c-10.624 0-19.236 8.612-19.236 19.236v193.509c0 10.623 8.613 19.236 19.236 19.236z" fill="#038cff"/><path d="m184.949 319.617c0-24.277 19.681-43.958 43.958-43.958h-73.006c-7.968 0-14.804 4.844-17.724 11.748-.973 2.301-1.512 4.832-1.512 7.488v96.037h48.284z" fill="#33a2ff"/><g><circle cx="300.84" cy="399.677" fill="#038cff" r="77.84"/></g><g><circle cx="300.84" cy="388.677" fill="#33a2ff" r="77.84"/></g><g><circle cx="300.84" cy="388.677" fill="#fff" r="54.005"/></g><g><circle cx="300.84" cy="388.677" fill="none" r="54.005" stroke="#038cff" stroke-miterlimit="10" stroke-width="8"/></g><g><circle cx="300.84" cy="388.677" fill="#4d55f0" r="30.549"/></g><g><circle cx="432.411" cy="302.822" fill="#4d55f0" r="8.19"/></g><g><g><path d="m331.569 275.659h-61.46c-3.532 0-6.292-3.05-5.941-6.565l1.703-17.03c.305-3.052 2.874-5.376 5.941-5.376h58.054c3.067 0 5.636 2.324 5.941 5.376l1.703 17.03c.352 3.515-2.408 6.565-5.941 6.565z" fill="#fff"/></g></g><circle cx="279.142" cy="373.757" fill="#fff" r="15.63"/><circle cx="325.374" cy="125.623" fill="#fff" r="30.602"/><path d="m211.506 198.473 38.371-58.547c3.986-6.081 12.899-6.081 16.884 0l38.371 58.547c4.4 6.713-.416 15.627-8.442 15.627h-76.742c-8.026 0-12.841-8.914-8.442-15.627z" fill="#33a2ff"/><g fill="none" stroke="#73ccff" stroke-miterlimit="10" stroke-width="8.653"><g><path d="m300.84 310.71v19.565"/><path d="m300.84 446.823v19.566"/></g><g><path d="m261.92 321.138 9.783 16.944"/><path d="m329.976 439.016 9.783 16.944"/></g><g><path d="m233.428 349.629 16.945 9.783"/><path d="m351.306 417.686 16.945 9.783"/></g><g><path d="m223 388.549h19.566"/><path d="m359.113 388.549h19.566"/></g><g><path d="m233.428 427.469 16.945-9.783"/><path d="m351.306 359.412 16.945-9.783"/></g><g><path d="m261.92 455.96 9.783-16.944"/><path d="m329.977 338.082 9.782-16.944"/></g></g><path d="m192.376 369.869h-18.248c-6.6 0-12-5.4-12-12v-24.731c0-6.6 5.4-12 12-12h18.248c6.6 0 12 5.4 12 12v24.731c0 6.6-5.4 12-12 12z" fill="#73ccff"/><path d="m218.181 455.384h-39.436c-2.65 0-4.819-2.168-4.819-4.819v-14.13c0-2.65 2.168-4.819 4.819-4.819h39.436c2.65 0 4.819 2.168 4.819 4.819v14.13c0 2.651-2.168 4.819-4.819 4.819z" fill="#33a2ff"/></g></svg>